# AST/ASF file generated using VICON BodyLanguage
# -----------------------------------------------
:version 1.10
:name VICON
:units
  mass 1.0
  length 0.45
  angle deg
:documentation
   .ast/.asf automatically generated from VICON data using
   VICON BodyBuilder and BodyLanguage model FoxedUp or BRILLIANT.MOD
:root
   order TX TY TZ RX RY RZ
   axis XYZ
   position 0 0 0  
   orientation 0 0 0 
:bonedata
  begin
     id 1 
     name lhipjoint
     direction 0.635376 -0.686425 0.353719 
     length 2.47244 
     axis 0 0 0  XYZ
  end
  begin
     id 2 
     name lfemur
     direction 0.34202 -0.939693 0  
     length 7.25268  
     axis 0 0 20  XYZ
    dof rx ry rz
    limits (-160.0 20.0)
           (-70.0 70.0)
           (-60.0 70.0)
  end
  begin
     id 3 
     name ltibia
     direction 0.34202 -0.939693 0   
     length 7.6767   
     axis 0 0 20   XYZ
    dof rx
    limits (-10.0 170.0)
  end
  begin
     id 4 
     name lfoot
     direction 0.0803374 -0.220725 0.972022   
     length 2.22945   
     axis -90 7.62852e-016 20   XYZ
    dof rx rz
    limits (-45.0 90.0)
           (-70.0 20.0)
  end
  begin
     id 5 
     name ltoes
     direction 1.53579e-011 -4.21994e-011 1   
     length 1.11848   
     axis -90 7.62852e-016 20   XYZ
    dof rx
    limits (-90.0 20.0)
  end
  begin
     id 6 
     name rhipjoint
     direction -0.664428 -0.664335 0.342336   
     length 2.55466  
     axis 0 0 0  XYZ 
  end
  begin
     id 7 
     name rfemur
     direction -0.34202 -0.939693 0   
     length 6.83172   
     axis 0 0 -20   XYZ
    dof rx ry rz
    limits (-160.0 20.0)
           (-70.0 70.0)
           (-70.0 60.0)
  end
  begin
     id 8 
     name rtibia
     direction -0.34202 -0.939693 0   
     length 7.62692   
     axis 0 0 -20   XYZ
    dof rx
    limits (-10.0 170.0)
 end
 begin
     id 9 
     name rfoot
     direction -0.0949276 -0.260811 0.960711   
     length 2.19684  
     axis -90 -7.62852e-016 -20   XYZ
    dof rx rz
    limits (-45.0 90.0)
           (-20.0 70.0)
  end
  begin
     id 10 
     name rtoes
     direction -1.53543e-011 -4.2183e-011 1   
     length 1.09848   
     axis -90 -7.62852e-016 -20   XYZ
    dof rx
    limits (-90.0 20.0)
  end
  begin
     id 11 
     name lowerback
     direction 0.0118782 0.999815 -0.0151555   
     length 2.15772   
     axis 0 0 0   XYZ
    dof rx ry rz
    limits (-20.0 45.0)
           (-30.0 30.0)
           (-30.0 30.0)
  end
  begin
     id 12 
     name upperback
     direction 0.00130825 0.999065 0.0432113   
     length 2.14863   
     axis 0 0 0   XYZ
    dof rx ry rz
    limits (-20.0 45.0)
           (-30.0 30.0)
           (-30.0 30.0)
  end
  begin
     id 13 
     name thorax
     direction -0.00347005 0.998773 0.0494011   
     length 2.14936   
     axis 0 0 0   XYZ
    dof rx ry rz
    limits (-20.0 45.0)
           (-30.0 30.0)
           (-30.0 30.0)
  end
  begin
     id 14 
     name lowerneck
     direction -0.0262159 0.99424 0.103921   
     length 1.69373   
     axis 0 0 0   XYZ
    dof rx ry rz
    limits (-20.0 45.0)
           (-30.0 30.0)
           (-30.0 30.0)
  end
  begin
     id 15 
     name upperneck
     direction 0.0353511 0.977394 -0.20845   
     length 1.70857   
     axis 0 0 0   XYZ
    dof rx ry rz
    limits (-20.0 45.0)
           (-30.0 30.0)
           (-30.0 30.0)
  end
  begin
     id 16
     name head
     direction 0.0139214 0.996594 -0.0812836  
     length 1.72777  
     axis 0 0 0   XYZ
    dof rx ry rz
    limits (-20.0 45.0)
           (-30.0 30.0)
           (-30.0 30.0)
  end
  begin
     id 17 
     name lclavicle
     direction 0.841247 0.537205 -0.0609508  
     length 3.55371  
     axis 0 0 0   XYZ
    dof ry rz
    limits (-20.0 10.0)
           (0.0 20.0)
  end
  begin
     id 18 
     name lhumerus
     direction 1 -4.48964e-011 1.60116e-018   
     length 4.91377   
     axis -180 -30 -90   XYZ
    dof rx ry rz
    limits (-60.0 90.0)
           (-90.0 90.0)
           (-90.0 90.0)
  end
  begin
     id 19
     name lradius
     direction 1 -4.48989e-011 -8.93847e-027   
     length 3.00291   
     axis -180 -30 -90   XYZ
    dof rx
    limits (-10.0 170.0)
  end
  begin
     id 20
     name lwrist
     direction 1 -4.48932e-011 -7.31504e-027   
     length 1.50145   
     axis 5.74121e-015 90 90   XYZ
    dof ry
    limits (-180.0 0.0)
 end
  begin
     id 21 
     name lhand
     direction 1 -4.48971e-011 -1.46301e-026   
     length 0.450922   
     axis 9.33524e-015 90 90   XYZ
    dof rx rz
    limits (-90.0 90.0)
           (-45.0 45.0)
  end
  begin
     id 22 
     name lfingers
     direction 1 -4.49039e-011 -2.92602e-026   
     length 0.363545   
     axis 1.86705e-014 90 90   XYZ
    dof rx
    limits (0.0 90.0)
  end
  begin
     id 23
     name lthumb
     direction 0.707107 -6.34941e-011 0.707107   
     length 0.52198   
     axis -90 45 2.85299e-015   XYZ
    dof rx rz
    limits (-45.0 45.0)
           (-45.0 45.0)
  end
  begin
     id 24 
     name rclavicle
     direction -0.825079 0.56158 -0.0622297   
     length 3.39909  
     axis 0 0 0   XYZ 
    dof ry rz
    limits (-10.0 20.0)
           (-20.0 0.0)
  end
  begin
     id 25 
     name rhumerus
     direction -1 -4.48965e-011 1.61691e-027  
     length 4.86725   
     axis -180 30 90   XYZ
    dof rx ry rz
    limits (-90.0 60.0)
           (-90.0 90.0)
           (-90.0 90.0)
  end
  begin
     id 26 
     name rradius
     direction -1 -4.48964e-011 -2.25776e-027   
     length 3.17144   
     axis -180 30 90   XYZ
    dof rx
    limits (-10.0 170.0)
  end
  begin
     id 27 
     name rwrist
     direction -1 -4.48961e-011 -7.31504e-027   
     length 1.58572   
     axis 5.74121e-015 -90 -90   XYZ
    dof ry
    limits (-180.0 0.0)
  end
  begin
     id 28
     name rhand
     direction -1 -4.49013e-011 -1.46301e-026   
     length 0.419368   
     axis 9.33524e-015 -90 -90   XYZ
    dof rx rz
    limits (-90.0 90.0)
           (-45.0 45.0)
  end
  begin
     id 29
     name rfingers
     direction -1 -4.489e-011 -2.92602e-026   
     length 0.338105   
     axis 1.86705e-014 -90 -90   XYZ
    dof rx
    limits (0.0 90.0)
  end
  begin
     id 30
     name rthumb
     direction -0.707107 -6.35022e-011 0.707107   
     length 0.485453   
     axis -90 -45 -2.85299e-015   XYZ
    dof rx rz
    limits (-45.0 45.0)
           (-45.0 45.0)
  end
:hierarchy
  begin
    root lhipjoint rhipjoint lowerback
    lhipjoint lfemur
    lfemur ltibia
    ltibia lfoot
    lfoot ltoes
    rhipjoint rfemur
    rfemur rtibia
    rtibia rfoot
    rfoot rtoes
    lowerback upperback
    upperback thorax
    thorax lowerneck lclavicle rclavicle
    lowerneck upperneck
    upperneck head
    lclavicle lhumerus
    lhumerus lradius
    lradius lwrist
    lwrist lhand lthumb
    lhand lfingers
    rclavicle rhumerus
    rhumerus rradius
    rradius rwrist
    rwrist rhand rthumb
    rhand rfingers
  end

#!OML:ASF H:\Swim 2\Project 1\Capture day 1\Session 1\male.ASF
:FULLY-SPECIFIED
:DEGREES
549
root 2.19153 14.8785 10.9727 104.401 24.4624 10.6262
lowerback -11.992 -1.0348 16.3132
upperback -8.7286 -3.05225 -10.3319
thorax -3.9528 -2.86219 -21.4099
lowerneck -21.3107 0.340352 -3.09671
upperneck 32.0527 -0.343021 6.45094
head 14.671 0.433869 3.14989
rclavicle -2.70347e-014 -8.78628e-014
rhumerus 27.9177 -33.7301 4.72819
rradius 39.5975
rwrist -26.9804
rhand 11.7996 2.85807
rfingers 7.12502
rthumb 36.8312 -23.2499
lclavicle -2.70347e-014 -8.78628e-014
lhumerus -287.341 -6.50225 350.224
lradius 42.1795
lwrist 51.749
lhand -32.2932 -5.85361
lfingers 7.12502
lthumb -5.53181 24.0542
rfemur -51.0229 5.19641 21.5962
rtibia 27.4238
rfoot 36.5316 0.209056
rtoes 27.2988
lfemur -37.6792 4.44888 -17.4437
ltibia 69.605
lfoot -8.86546 -2.43821
ltoes -18.6916
550
root 2.20002 14.8922 10.9329 104.673 24.5234 10.9624
lowerback -12.0775 -0.896877 16.2162
upperback -8.81095 -2.85156 -10.0334
thorax -3.87608 -2.73019 -20.9346
lowerneck -21.2812 0.284339 -3.26655
upperneck 31.9475 -0.370133 6.47821
head 14.6182 0.406465 3.18113
rclavicle 4.21423e-014 1.18873e-013
rhumerus 31.3206 -34.7683 2.95854
rradius 38.3434
rwrist -25.6032
rhand 11.4575 2.86936
rfingers 7.12502
rthumb 36.5073 -23.3209
lclavicle 4.21423e-014 1.18873e-013
lhumerus -288.249 -8.52348 350.512
lradius 43.1455
lwrist 49.4736
lhand -32.3142 -6.36854
lfingers 7.12502
lthumb -5.55214 23.5387
rfemur -51.2642 5.34782 21.6943
rtibia 29.4653
rfoot 36.6015 0.990121
rtoes 27.3729
lfemur -38.5413 4.72188 -17.8641
ltibia 70.4928
lfoot -8.77752 -2.24453
ltoes -18.1163
551
root 2.20676 14.9066 10.8932 104.955 24.5764 11.2567
lowerback -12.1739 -0.768596 16.1292
upperback -8.891 -2.66824 -9.74479
thorax -3.80387 -2.6099 -20.4847
lowerneck -21.2606 0.252306 -3.38474
upperneck 31.8093 -0.385364 6.51447
head 14.5521 0.391474 3.20772
rclavicle 4.73108e-014 1.41535e-013
rhumerus 34.8058 -35.6945 0.916043
rradius 37.1103
rwrist -24.0829
rhand 11.109 2.89217
rfingers 7.12502
rthumb 36.1774 -23.3806
lclavicle 4.73108e-014 1.41535e-013
lhumerus -289.255 -10.6284 350.696
lradius 44.1033
lwrist 46.9694
lhand -32.4784 -6.73871
lfingers 7.12502
lthumb -5.71059 23.1643
rfemur -51.4311 5.60767 21.7329
rtibia 31.5084
rfoot 36.6418 1.71154
rtoes 27.5175
lfemur -39.5009 5.04235 -18.3147
ltibia 71.171
lfoot -8.71779 -1.9047
ltoes -17.4799
552
root 2.21273 14.9209 10.8541 105.225 24.6199 11.5201
lowerback -12.2635 -0.650454 16.0401
upperback -8.95886 -2.49897 -9.4654
thorax -3.73213 -2.49719 -20.0501
lowerneck -21.2569 0.234522 -3.43964
upperneck 31.6704 -0.404074 6.55104
head 14.4901 0.382713 3.2229
rclavicle -1.43125e-014 -8.98507e-014
rhumerus 38.3183 -36.5008 -1.33351
rradius 35.9167
rwrist -22.3989
rhand 10.8525 2.92464
rfingers 7.12502
rthumb 35.9345 -23.4079
lclavicle -1.43125e-014 -8.98507e-014
lhumerus -290.321 -12.7982 350.799
lradius 45.0481
lwrist 44.4564
lhand -32.7049 -6.96788
lfingers 7.12502
lthumb -5.92934 22.9292
rfemur -51.4845 5.91345 21.7509
rtibia 33.5257
rfoot 36.635 2.38134
rtoes 27.5573
lfemur -40.5028 5.37449 -18.7863
ltibia 71.6022
lfoot -8.69985 -1.45499
ltoes -16.8335
553
root 2.21892 14.9343 10.8163 105.473 24.623 11.7357
lowerback -12.3519 -0.539722 15.9236
upperback -9.01328 -2.3381 -9.20708
thorax -3.65218 -2.38683 -19.6296
lowerneck -21.2741 0.238187 -3.41344
upperneck 31.5299 -0.410228 6.55248
head 14.4315 0.384085 3.21179
rclavicle 7.7526e-015 -6.40087e-014
rhumerus 41.8127 -37.1683 -3.73072
rradius 34.7716
rwrist -20.5824
rhand 10.687 2.94092
rfingers 7.12502
rthumb 35.7776 -23.4299
lclavicle 7.7526e-015 -6.40087e-014
lhumerus -291.433 -15.0323 350.853
lradius 45.9837
lwrist 42.1316
lhand -32.9261 -7.09108
lfingers 7.12502
lthumb -6.14287 22.7999
rfemur -51.4204 6.21641 21.7436
rtibia 35.5014
rfoot 36.6569 3.01032
rtoes 27.6901
lfemur -41.5036 5.69088 -19.3055
ltibia 71.7525
lfoot -8.71421 -0.915256
ltoes -16.1714
